# xmcd CD database file
#
# Track frame offsets:
#	183
#	13195
#	25035
#	38160
#	51935
#	66118
#	79828
#	93608
#	108313
#	122373
#	136128
#	150845
#	165405
#	179495
#	193940
#	208890
#	222953
#	236068
#	251993
#	266053
#	279648
#	293620
#	306430
#	320035
#
# Disc length: 4467 seconds
#
# Revision: 2
# Processed by: cddbd v1.5.2PL0 Copyright (c) Steve Scherf et al.
# Submitted via: CDex 1.51
#
DISCID=64117118
DTITLE=Fats Waller - Young Fats at the Organ - Vol.3  {1926-1929}
DYEAR=1900
DGENRE=Jazz
TTITLE0=St. Louis BLues
TTITLE1=Lenox Avenue Blues  (The Church Organ Blues)
TTITLE2=Soothin' Syrup Stomp
TTITLE3=Sloppy Water Blues
TTITLE4=Loveless Love
TTITLE5=Messin' Around with the Blues
TTITLE6=The Rusty Pail
TTITLE7=Stompin' The Bug
TTITLE8=Hog Maw Stomp
TTITLE9=Sugar  (instrumental)
TTITLE10=Sugar  (vocal)
TTITLE11=Beale Street Blues  (vocal)
TTITLE12=Beale Street Blues  (instrumental)
TTITLE13=I'm Goin' to See My Ma
TTITLE14=Red Hot Dan
TTITLE15=I Ain't Got Nobody
TTITLE16=The Digah's Stomp  (The Dream)
TTITLE17=Willow Tree
TTITLE18='Sippi
TTITLE19=Thou Swell
TTITLE20=Waiting At The End Of The Road
TTITLE21=Baby, Oh Where Can You Be ¿
TTITLE22=Tanglefoot
TTITLE23=That's All
EXTD=
EXTT0=
EXTT1=
EXTT2=
EXTT3=
EXTT4=
EXTT5=
EXTT6=
EXTT7=
EXTT8=
EXTT9=
EXTT10=
EXTT11=
EXTT12=
EXTT13=
EXTT14=
EXTT15=
EXTT16=
EXTT17=
EXTT18=
EXTT19=
EXTT20=
EXTT21=
EXTT22=
EXTT23=
PLAYORDER=
